<?xml version="1.0" encoding="utf-8"?>
<?xml-stylesheet type="text/xsl" href="rss1.xsl"?>
<rss version="2.0" xmlns:atom="http://www.w3.org/2005/Atom" xmlns:content="http://purl.org/rss/1.0/modules/content/" xmlns:dc="http://purl.org/dc/elements/1.1/" xmlns:media="http://search.yahoo.com/mrss/">
<channel>
 <title>Getty</title>
 <link>http://www.gettyimg.com/</link>
 <atom:link href="http://www.gettyimg.com/" rel="self" type="application/rss+xml" />

 
                <item>
                <title><![CDATA[【Music Videos】Presuntos Implicados - Como Hemos Cambiado (Clean)]]></title>
                <link><![CDATA[https://sharemania.us/threads/presuntos-implicados-como-hemos-cambiado-clean.241047/]]></link>
                <description><![CDATA[<article>
<blockquote class="messageText SelectQuoteContainer ugc baseHtml">
<img src="https://i.ibb.co/PGydVnb/Presuntos-Implicados-Como-Hemos-Cambiado-mp4-thumbs-2024-03-29-16-59-18.jpg" class="bbCodeImage LbImage" alt="[​IMG]" data-url="https://i.ibb.co/PGydVnb/Presuntos-Implicados-Como-Hemos-Cambiado-mp4-thumbs-2024-03-29-16-59-18.jpg" style=""> <br>
<br>
<div class="ToggleTriggerAnchor bbCodeSpoilerContainer">
<button type="button" class="button bbCodeSpoilerButton ToggleTrigger Tooltip JsOnly" data-target="> .SpoilerTarget"><span>Spoiler: <span class="SpoilerTitle">MediaInfo</span></span></button>
<div class="SpoilerTarget bbCodeSpoilerText">Presuntos Implicados - Como Hemos Cambiado.mp4<br>
Format : MPEG-4<br>
Format profile : Base Media / Version 2<br>
Codec ID : mp42 (mp42/mp41)<br>
File size : 317 MiB<br>
Duration : 4 min 19 s<br>
Overall bit rate mode : Variable<br>
Overall bit rate : 10.3 Mb/s<br>
Frame rate : 29.970 FPS<br>
Encoded date : 2020-12-31 19:07:45 UTC<br>
Tagged date : 2020-12-31 19:07:52 UTC<br>
TIM : 00:00:00:00<br>
TSC : 30000<br>
TSZ : 1001<br>
<br>
Video<br>
ID : 1<br>
Format : AVC<br>
Format/Info : Advanced Video Codec<br>
Format profile : Main@L3.1<br>
Format settings : CABAC / 4 Ref Frames<br>
Format settings, CABAC : Yes<br>
Format settings, Reference : 4 frames<br>
Codec ID : avc1<br>
Codec ID/Info : Advanced Video Coding<br>
Duration : 4 min 19 s<br>
Bit rate : 9 942 kb/s<br>
Width : 720 pixels<br>
Height : 480 pixels<br>
Display aspect ratio : 3:2<br>
Frame rate mode : Constant<br>
Frame rate : 29.970 (30000/1001) FPS<br>
Standard : NTSC<br>
Color space : YUV<br>
Chroma subsampling : 4:2:0<br>
Bit depth : 8 bits<br>
Scan type : Progressive<br>
Bits/(Pixel*Frame) : 0.960<br>
Stream size : 308 MiB (97%)<br>
Language : English<br>
Encoded date : 2020-12-31 19:07:45 UTC<br>
Tagged date : 2020-12-31 19:07:45 UTC<br>
Color range : Limited<br>
Color primaries : BT.601 NTSC<br>
Transfer characteristics : BT.601<br>
Matrix coefficients : BT.601<br>
Codec configuration box : avcC<br>
<br>
Audio<br>
ID : 2<br>
Format : AAC LC<br>
Format/Info : Advanced Audio Codec Low Complexity<br>
Codec ID : mp4a-40-2<br>
Duration : 4 min 19 s<br>
Source duration : 4 min 19 s<br>
Bit rate mode : Variable<br>
Bit rate : 317 kb/s<br>
Maximum bit rate : 413 kb/s<br>
Channel(s) : 2 channels<br>
Channel layout : L R<br>
Sampling rate : 48.0 kHz<br>
Frame rate : 46.875 FPS (1024 SPF)<br>
Compression mode : Lossy<br>
Stream size : 9.82 MiB (3%)<br>
Source stream size : 9.82 MiB (3%)<br>
Language : English<br>
Encoded date : 2020-12-31 19:07:45 UTC<br>
Tagged date : 2020-12-31 19:07:45 UTC</div>
</div><br>
<div class="bbCodeBlock bbCodeVfcHH HiddenContent">
<div class="attribution type">Hidden Content:</div>
<blockquote>You must reply before you can see the hidden data contained here.</blockquote>
</div>
<div class="messageTextEndMarker">&nbsp;</div>
</blockquote>
</article>]]></description>
                <author><![CDATA[DJ-RoGeRs-BS]]></author>
                </item>

                
                <item>
                <title><![CDATA[【Albums (lossy)】M4A - Ava Max - Heaven &amp; Hell (Japan Bonus Tracks)]]></title>
                <link><![CDATA[https://sharemania.us/threads/ava-max-heaven-hell-japan-bonus-tracks.241048/]]></link>
                <description><![CDATA[<article>
<blockquote class="messageText SelectQuoteContainer ugc baseHtml">
<img src="https://i.discogs.com/as3yWLHjkwskvHJMUZi88bRl-p64DD534mgcaBi5rKY/rs:fit/g:sm/q:90/h:540/w:600/czM6Ly9kaXNjb2dz/LWRhdGFiYXNlLWlt/YWdlcy9SLTE2OTE3/NDQxLTE2MzMwNzk3/OTAtMzA4NC5qcGVn.jpeg" class="bbCodeImage LbImage" alt="[​IMG]" data-url="https://i.discogs.com/as3yWLHjkwskvHJMUZi88bRl-p64DD534mgcaBi5rKY/rs:fit/g:sm/q:90/h:540/w:600/czM6Ly9kaXNjb2dz/LWRhdGFiYXNlLWlt/YWdlcy9SLTE2OTE3/NDQxLTE2MzMwNzk3/OTAtMzA4NC5qcGVn.jpeg" style=""> <br>
TRACKLIST<br>
<i><b><br>
1 - H.E.A.V.E.N.<br>
2 - Kings &amp; Queens<br>
3 - Naked<br>
4 - Tattoo<br>
5 - OMG What's Happening<br>
6 - Call Me Tonight<br>
7 - Born To The Night<br>
8 - Kings &amp; Queens (Acoustic)<br>
9 - Torn<br>
10 - Take You To Hell<br>
11 - Who's Laughing Now<br>
12 - Belladonna<br>
13 - Rumors<br>
14 - So Am I<br>
15 - Salt<br>
16 - Sweet But Psycho<br>
17 - Not Your Barbie Girl<br>
18 - So Am I (Acoustic)<br>
19 - Salt (Acoustic)<br>
20 - Sweet But Psycho (Acoustic)</b></i><br>
<i><b>
<div class="bbCodeBlock bbCodeVfcHH HiddenContent">
<div class="attribution type">Hidden Content:</div>
<blockquote>You must reply before you can see the hidden data contained here.</blockquote>
</div></b></i>
<div class="messageTextEndMarker">&nbsp;</div>
</blockquote>
</article>]]></description>
                <author><![CDATA[rominuchiis]]></author>
                </item>

                </channel></rss>